<?xml version="1.0" encoding="UTF-8"?>
<!DOCTYPE svg PUBLIC "-//W3C//DTD SVG 1.1//EN" "http://www.w3.org/Graphics/SVG/1.1/DTD/svg11.dtd">
<!-- Creator: CorelDRAW 2020 (64-Bit) -->
<svg xmlns="http://www.w3.org/2000/svg" xml:space="preserve" width="307.645mm" height="44.2219mm" version="1.1" style="shape-rendering:geometricPrecision; text-rendering:geometricPrecision; image-rendering:optimizeQuality; fill-rule:evenodd; clip-rule:evenodd"
viewBox="0 0 33276.13 4783.22"
 xmlns:xlink="http://www.w3.org/1999/xlink"
 xmlns:xodm="http://www.corel.com/coreldraw/odm/2003">
 <defs>
  <style type="text/css">
   <![CDATA[
    .fil0 {fill:#487CEF;fill-rule:nonzero}
    .fil1 {fill:#E2641E;fill-rule:nonzero}
   ]]>
  </style>
 </defs>
 <g id="Слой_x0020_1">
  <metadata id="CorelCorpID_0Corel-Layer"/>
  <path class="fil0" d="M82.1 4469.75l868.18 0c-132.39,0 -157.18,-152.72 -155.96,-272.94l0 -3606.79c0,-174.36 141.25,-292.44 311.93,-292.44l5380.94 0c176.2,0 311.93,135.73 311.93,311.93l0 3587.3c0,180.83 -31.5,272.94 -155.96,272.94l852.22 0c200.38,0 194.8,311.93 5.6,311.93l-7408.54 0c-133.65,0 -109.2,-310.55 -10.35,-311.93zm965.66 -233.95l5517.42 0 0 -3684.78 -5517.42 0 0 3684.78zm2437.02 439.16l662.87 0c82.83,-0.62 117.26,-31.11 117.68,-74.45 0.43,-45.37 -33.69,-75.61 -117.17,-75.99l-663.38 3.65c-90.92,0 -135.48,22.63 -135.73,72.16 -0.3,55.56 37.29,74.63 135.73,74.63z"/>
  <path class="fil0" d="M23830.56 2936.79c0,-858.64 586.01,-1598.69 1481.71,-1598.69 786.94,0 1312.34,629.42 1312.34,1389.1 0,280.99 17.64,482.53 -84.08,482.53l-2086.09 0c0,354.28 83.76,600.23 297.79,852.48 250.73,295.49 875.05,267.13 1193.81,112.71 131.28,-63.6 212.16,-131.59 321.55,-204.84 89.35,133.43 156.7,249.72 233.96,389.93 -58.66,87.59 -222.61,183.13 -326.85,238.54 -242.73,125.98 -525.54,185.58 -804.39,183.18 -1139.97,-9.82 -1539.74,-812.6 -1539.74,-1844.94zm643.38 -214.46l1519.12 0.02c6.09,-229.11 -66.25,-908.73 -717.16,-904.15 -723.98,5.09 -795.55,800.71 -801.96,904.13zm2659.69 96.07c0,367.18 -28.03,678.18 105.47,1025.31 15.56,40.5 30.48,73.14 47.26,108.7 111.17,235.66 204,384.34 406.47,548.83 589.53,478.99 1752.14,339.67 2112.09,-356.81 15.98,-30.92 222.05,-468.21 58.18,-468.21l-506.9 0c0,387.51 -410.82,623.88 -623.88,623.88 -360.5,0 -611.29,-1.27 -830.31,-397.95 -251.89,-456.22 -347.71,-2058.58 674.34,-2058.58 249.48,0 425.67,50.21 599.82,238.52 261.35,282.61 112.63,482.83 238.51,482.83 508.79,0 506.9,39.87 506.9,-97.48 0,-603.1 -598.07,-1111.28 -1247.75,-1111.28 -681.41,0 -1122.6,247.21 -1406.75,874.31 -51.05,112.69 -133.45,420.73 -133.45,587.9zm-6879.71 -2052.93c0,44.92 13.56,58.48 58.48,58.48l1364.73 0 0 3957.72 604.39 0 0 -3957.72 1364.73 0c101.73,0 58.5,-206.41 58.5,-487.4l-3450.82 0 0 428.91zm10331.74 -740.86l0 4757.06 604.39 0 0 -2378.53c0,-57.38 9.64,-63.55 34.84,-101.63 62.19,-94.03 143.56,-169.43 235.11,-232.8 70.7,-48.94 112.56,-73.5 207.42,-104.53 214.37,-70.1 492.55,-73.05 691.68,30.28 311.32,161.53 312.67,600.15 312.67,954.58l0 1832.63 604.38 0 0 -2300.54c0,-221.8 -133.4,-585.81 -306.37,-765.91 -89.05,-92.72 -206.24,-168.52 -328.34,-217.55 -469.2,-188.42 -1044.9,-70.51 -1358.09,296.89 -55.87,65.54 -15.05,61.3 -93.28,82.18l0 -1852.14 -604.39 0z"/>
  <path class="fil1" d="M17213.91 4244.52c-235.59,257.14 -578.32,533.11 -971.51,535.54 -581.77,3.59 -1096.25,-259.3 -1098.7,-924.51 -3.95,-1078.1 1230.74,-1072.41 2073.6,-1055.26 12.58,-516.81 -29.86,-965.97 -625.25,-965.97 -469.58,0 -708.58,169.62 -712.35,514.77l-592.15 -3.94c135.49,-726.97 651.21,-985.47 1376.47,-971.92 782.36,14.62 1136.66,474.47 1136.66,1236.94l0 736.91c0,514.75 -11.49,840.02 8.34,977.98 19.8,137.82 62.24,330.29 121.28,456.61l-619.84 0c-48.9,-116.85 -82.71,-380.32 -96.56,-537.16zm6.17 -1047.09c-586.66,-0.24 -1464.68,-122.84 -1484.14,642.33 -8.75,344.28 300.12,451.26 623.64,448.46 281.17,-2.43 710.55,-191.28 852.43,-527.88l8.07 -562.91zm-5405.44 -264.42c0,-858.63 586.01,-1598.67 1481.71,-1598.67 786.94,0 1312.34,629.42 1312.34,1389.1 0,280.99 17.63,482.53 -84.08,482.53l-2086.09 0c0,354.28 83.75,600.23 297.79,852.48 250.72,295.49 875.05,267.13 1193.8,112.71 131.29,-63.61 212.17,-131.59 321.56,-204.84 89.35,133.43 156.69,249.71 233.95,389.92 -58.65,87.59 -222.61,183.13 -326.84,238.54 -242.73,125.99 -525.54,185.58 -804.39,183.18 -1139.97,-9.82 -1539.74,-812.59 -1539.74,-1844.94zm643.37 -214.46l1519.13 0.02c6.09,-229.1 -66.25,-908.72 -717.16,-904.14 -724,5.08 -795.56,800.71 -801.97,904.12zm-4503.35 2063.13l1462.21 0c226.96,0 593.59,-86.99 754.1,-162.21 187.9,-88.09 415.31,-229.55 557.69,-378.12 571.79,-596.63 520.84,-1283.28 520.84,-2033.16 0,-135.12 -20.91,-277.81 -44.39,-404 -6.38,-34.27 -32.98,-137.94 -47.88,-186.09 -159.36,-514.57 -435.08,-825.63 -890.37,-1078.73 -36.15,-20.1 -38.34,-22.27 -78.02,-38.96 -214.19,-90.19 -477.46,-163.85 -771.97,-163.85l-1462.21 0 0 4445.12zm1423.22 -487.4l-818.83 0 0 -3470.32c348.27,0 921.51,-35.76 1211.5,55.75 680.1,214.62 874.58,880.56 874.58,1601.43 0,685.97 -35.72,1104.2 -462.61,1506.51 -214.59,202.23 -511.19,306.63 -804.64,306.63zm9352.91 -4294.28l0 4781.65 604.44 0.09 -0.04 -4781.74 -604.4 0z"/>
 </g>
</svg>
