<?xml version="1.0" standalone="no"?>
<!DOCTYPE svg PUBLIC "-//W3C//DTD SVG 20010904//EN"
 "http://www.w3.org/TR/2001/REC-SVG-20010904/DTD/svg10.dtd">
<svg version="1.0" xmlns="http://www.w3.org/2000/svg"
 width="700.000000pt" height="700.000000pt" viewBox="0 0 700.000000 700.000000"
 preserveAspectRatio="xMidYMid meet">
<metadata>
Created by potrace 1.11, written by Peter Selinger 2001-2013
</metadata>
<g transform="translate(0.000000,700.000000) scale(0.100000,-0.100000)"
fill="#000000" stroke="none">
<path d="M3488 6995 c-2 -1 -73 -5 -158 -9 -85 -3 -166 -8 -180 -10 -14 -3
-50 -7 -81 -11 -50 -5 -239 -36 -295 -49 -519 -113 -980 -327 -1404 -652 -137
-105 -179 -142 -336 -299 -353 -352 -601 -730 -787 -1200 -60 -152 -127 -365
-151 -485 -28 -139 -46 -233 -51 -270 -3 -25 -8 -56 -10 -70 -2 -14 -7 -59
-10 -100 -4 -41 -9 -91 -11 -110 -4 -47 -4 -412 1 -475 5 -82 16 -189 20 -205
2 -8 7 -40 10 -70 26 -219 147 -655 235 -845 132 -285 201 -412 323 -595 39
-58 73 -107 76 -110 3 -3 25 -30 48 -61 97 -130 255 -305 404 -444 71 -66 254
-218 309 -255 19 -13 37 -27 40 -30 6 -7 154 -104 225 -147 126 -77 238 -135
375 -194 63 -28 124 -54 135 -59 130 -60 515 -168 690 -194 67 -11 158 -25
195 -32 59 -11 690 -14 765 -4 39 6 90 12 115 15 25 3 57 8 73 10 68 12 85 15
137 25 30 6 66 14 80 16 49 10 147 36 255 69 844 256 1559 823 2013 1597 104
178 208 408 289 643 36 104 98 332 107 397 3 21 10 57 15 80 12 52 19 101 36
238 13 103 15 722 2 780 -3 14 -8 52 -12 85 -20 187 -133 634 -194 770 -5 11
-26 61 -46 110 -55 132 -169 358 -228 452 -135 214 -216 325 -348 478 -309
359 -669 638 -1089 848 -91 45 -181 88 -200 96 -19 7 -48 19 -65 26 -101 44
-369 127 -530 164 -116 26 -163 34 -400 65 -22 3 -101 8 -175 11 -74 4 -152 7
-172 9 -21 2 -39 2 -40 1z"/>
</g>
</svg>
