<svg id="Layer_1" data-name="Layer 1" xmlns="http://www.w3.org/2000/svg" viewBox="0 0 1091.5 229.8"><defs><style>.cls-1{fill:#487cef;}.cls-2{fill:#fff;}.cls-3{fill:#e2641e;}</style></defs><title>logo svg</title><path class="cls-1" d="M333.76.83H55.91A14.26,14.26,0,0,0,41.65,15.1V200A14.26,14.26,0,0,0,55.91,214.3H333.76A14.26,14.26,0,0,0,348,200V15.1A14.26,14.26,0,0,0,333.76.83ZM337.3,203.1H53.65V12.49H337.3Z"/><path class="cls-1" d="M333.76,214.94H55.91A14.93,14.93,0,0,1,41,200V15.1A14.93,14.93,0,0,1,55.91.18H333.76A14.93,14.93,0,0,1,348.67,15.1V200A14.93,14.93,0,0,1,333.76,214.94ZM55.91,1.48A13.63,13.63,0,0,0,42.29,15.1V200a13.63,13.63,0,0,0,13.62,13.62H333.76A13.63,13.63,0,0,0,347.37,200V15.1A13.63,13.63,0,0,0,333.76,1.48Zm282,202.27H53V11.85H337.94ZM54.3,202.46H336.65V13.14H54.3Z"/><rect class="cls-1" x="0.49" y="214.3" width="390.66" height="15.04" rx="3.94" ry="3.94"/><path class="cls-1" d="M383.64,230H8a8.17,8.17,0,1,1,0-16.34H383.64a8.17,8.17,0,1,1,0,16.34ZM8,214.94a6.87,6.87,0,0,0,0,13.74H383.64a6.87,6.87,0,0,0,0-13.74Z"/><rect class="cls-2" x="172.74" y="217.53" width="46.25" height="6.12" rx="1.6" ry="1.6"/><path class="cls-2" d="M215.94,224.3H175.8a3.71,3.71,0,1,1,0-7.42h40.13a3.71,3.71,0,1,1,0,7.42Zm-40.13-6.12a2.41,2.41,0,1,0,0,4.82h40.13a2.41,2.41,0,1,0,0-4.82Z"/><path class="cls-3" d="M362.06,178.87V51.06H401.3q25.11,0,40.29,15.41t15.19,39.81v17.47q0,24.49-15.19,39.81T401.3,178.87Zm17.29-114.2v100.6H401.3q17.73,0,28-11.66t10.23-29.91V106.06q0-18.07-10.23-29.73t-28-11.67Z"/><path class="cls-3" d="M516.65,180.72q-19.84,0-31.56-13.21t-11.72-34.28v-3.86q0-20.28,12.07-33.75T514,82.14q19.22,0,29.06,11.59t9.83,30.9v10.8H491.28l-.26.44q.26,13.66,6.93,22.45t18.7,8.8a43.49,43.49,0,0,0,15.41-2.5,35.4,35.4,0,0,0,11.46-6.89L550.27,169a40.14,40.14,0,0,1-13.43,8.39Q528.5,180.72,516.65,180.72Zm-2.63-85q-8.69,0-14.84,7.31t-7.55,18.33l.18.44h43.8v-2.27q0-10.15-5.44-17T514,95.74Z"/><path class="cls-3" d="M630.68,178.87q-.88-4.3-1.36-7.59a55.42,55.42,0,0,1-.57-6.63,40.31,40.31,0,0,1-12.6,11.45,32.21,32.21,0,0,1-16.72,4.61q-14.84,0-22.6-7.59t-7.77-20.94q0-13.61,11-21.29T610,123.22h18.79v-9.39q0-8.34-5.09-13.21t-14.4-4.87q-8.34,0-13.56,4.26t-5.22,10.23H574l-.18-.53q-.53-10.35,9.79-19t26.64-8.6q16.15,0,26,8.21T646,114v45.73a89.18,89.18,0,0,0,.53,9.83,50.65,50.65,0,0,0,1.93,9.3ZM602,166.14a30.85,30.85,0,0,0,16.94-4.81q7.55-4.81,9.83-11V134.89h-19.4q-10.45,0-16.72,5.25t-6.28,12.34q0,6.3,3.95,10T602,166.14Z"/><path class="cls-3" d="M689.84,178.87H672.55V41.93h17.29Z"/><path class="cls-1" d="M815.79,64.67H774.71v114.2H757.42V64.67h-41V51.06h99.37Z"/><path class="cls-1" d="M862.93,180.72q-19.84,0-31.56-13.21t-11.72-34.28v-3.86q0-20.28,12.07-33.75T860.3,82.14q19.23,0,29.06,11.59t9.83,30.9v10.8H837.56l-.26.44q.26,13.66,6.93,22.45t18.7,8.8a43.49,43.49,0,0,0,15.41-2.5,35.41,35.41,0,0,0,11.45-6.89L896.55,169a40.1,40.1,0,0,1-13.43,8.39Q874.78,180.72,862.93,180.72Zm-2.63-85q-8.69,0-14.84,7.31t-7.55,18.33l.18.44h43.8v-2.27q0-10.15-5.44-17T860.3,95.74Z"/><path class="cls-1" d="M957.21,167.11a23.33,23.33,0,0,0,15.14-5.31q6.54-5.31,6.54-13h15.54l.18.53q.44,12.29-10.93,21.86a39.85,39.85,0,0,1-26.47,9.57q-20.72,0-31.69-13.52t-11-34v-3.69q0-20.28,11-33.84t31.65-13.56q16.68,0,27.26,9.83a30.58,30.58,0,0,1,10.23,24.14l-.18.53H978.89a20.08,20.08,0,0,0-6.14-14.79,21.15,21.15,0,0,0-15.54-6.1q-13.61,0-19.44,9.78t-5.84,24v3.68q0,14.56,5.79,24.24T957.21,167.11Z"/><path class="cls-1" d="M1031.3,96.62A35,35,0,0,1,1043.37,86a33.13,33.13,0,0,1,15.85-3.82q15.18,0,23.66,9.13t8.47,28.09v59.52H1074V119.18q0-11.76-5-17.38t-15.06-5.62a25.54,25.54,0,0,0-13,3.38,28.23,28.23,0,0,0-9.61,9.17v70.14H1014V41.93h17.29Z"/></svg>