<svg id="Layer_1" data-name="Layer 1" xmlns="http://www.w3.org/2000/svg" viewBox="0 0 535.23 324.31"><defs><style>.cls-1{fill:#487cef;}.cls-2{fill:#fff;}.cls-3{fill:#e2641e;}</style></defs><title>center svg</title><path class="cls-1" d="M386.9.24h-240a12.32,12.32,0,0,0-12.32,12.32V172.33a12.32,12.32,0,0,0,12.32,12.32h240a12.32,12.32,0,0,0,12.32-12.32V12.56A12.32,12.32,0,0,0,386.9.24ZM390,175h-245V10.32H390Z"/><path class="cls-1" d="M386.9,185.21h-240A12.9,12.9,0,0,1,134,172.33V12.56A12.9,12.9,0,0,1,146.86-.32h240a12.9,12.9,0,0,1,12.88,12.88V172.33A12.9,12.9,0,0,1,386.9,185.21ZM146.86.8A11.78,11.78,0,0,0,135.1,12.56V172.33a11.78,11.78,0,0,0,11.76,11.76h240a11.78,11.78,0,0,0,11.76-11.76V12.56A11.78,11.78,0,0,0,386.9.8ZM390.51,175.55H144.35V9.76H390.51Zm-245-1.12H389.39V10.88H145.47Z"/><rect class="cls-1" x="98.99" y="184.65" width="337.5" height="12.99" rx="3.94" ry="3.94"/><path class="cls-1" d="M430,198.21H105.48a7.06,7.06,0,0,1,0-14.11H430a7.06,7.06,0,0,1,0,14.11Zm-324.51-13a5.94,5.94,0,0,0,0,11.87H430a5.94,5.94,0,0,0,0-11.87Z"/><rect class="cls-2" x="247.79" y="187.45" width="39.96" height="5.29" rx="1.6" ry="1.6"/><path class="cls-2" d="M285.11,193.3H250.44a3.2,3.2,0,1,1,0-6.41h34.67a3.2,3.2,0,1,1,0,6.41ZM250.44,188a2.08,2.08,0,1,0,0,4.17h34.67a2.08,2.08,0,1,0,0-4.17Z"/><path class="cls-3" d="M.12,322.64v-93.8h28.8q18.43,0,29.57,11.31t11.15,29.22v12.82q0,18-11.15,29.22T28.92,322.64Zm12.69-83.82v73.83H28.92q13,0,20.52-8.56t7.51-22V269.2q0-13.26-7.51-21.82t-20.52-8.56Z"/><path class="cls-3" d="M113.57,324q-14.56,0-23.16-9.7t-8.6-25.16V286.3q0-14.88,8.86-24.77t21-9.89q14.11,0,21.33,8.5t7.21,22.68v7.92H95l-.19.32q.19,10,5.09,16.48T113.57,314a31.92,31.92,0,0,0,11.31-1.84,26,26,0,0,0,8.41-5.06l5,8.25a29.46,29.46,0,0,1-9.86,6.16A39.68,39.68,0,0,1,113.57,324Zm-1.93-62.36A13.77,13.77,0,0,0,100.75,267a25.35,25.35,0,0,0-5.54,13.45l.13.32h32.15v-1.67a19.35,19.35,0,0,0-4-12.46Q119.5,261.63,111.64,261.63Z"/><path class="cls-3" d="M197.26,322.64q-.64-3.16-1-5.57a40.67,40.67,0,0,1-.42-4.86,29.59,29.59,0,0,1-9.25,8.41A23.64,23.64,0,0,1,174.33,324q-10.89,0-16.59-5.57T152,303.05a18,18,0,0,1,8.09-15.62q8.08-5.64,21.94-5.64h13.79V274.9q0-6.12-3.74-9.7t-10.57-3.58a15.26,15.26,0,0,0-10,3.12,9.4,9.4,0,0,0-3.83,7.51H155.64l-.13-.39q-.39-7.6,7.18-13.91t19.55-6.31q11.85,0,19.07,6T208.54,275v33.57a65.44,65.44,0,0,0,.39,7.22,37.17,37.17,0,0,0,1.42,6.83Zm-21.07-9.34a22.64,22.64,0,0,0,12.43-3.53q5.54-3.53,7.22-8.09V290.36H181.61q-7.67,0-12.27,3.85t-4.61,9.06a9.52,9.52,0,0,0,2.9,7.32Q170.52,313.3,176.19,313.3Z"/><path class="cls-3" d="M240.68,322.64H228V222.13h12.69Z"/><path class="cls-1" d="M333.12,238.82H303v83.82H290.28V238.82H260.19v-10h72.93Z"/><path class="cls-1" d="M367.71,324q-14.56,0-23.16-9.7T336,289.14V286.3q0-14.88,8.86-24.77t21-9.89q14.11,0,21.33,8.5t7.22,22.68v7.92H349.09l-.19.32q.19,10,5.09,16.48T367.71,314A31.92,31.92,0,0,0,379,312.17a26,26,0,0,0,8.41-5.06l5,8.25a29.43,29.43,0,0,1-9.86,6.16A39.68,39.68,0,0,1,367.71,324Zm-1.93-62.36A13.77,13.77,0,0,0,354.89,267a25.34,25.34,0,0,0-5.54,13.45l.13.32h32.15v-1.67a19.35,19.35,0,0,0-4-12.46Q373.64,261.63,365.78,261.63Z"/><path class="cls-1" d="M436.91,314a17.12,17.12,0,0,0,11.11-3.9,11.9,11.9,0,0,0,4.8-9.57h11.4l.13.39q.32,9-8,16a29.25,29.25,0,0,1-19.42,7q-15.2,0-23.26-9.92t-8.05-24.93v-2.71q0-14.88,8.09-24.84t23.22-10q12.24,0,20,7.22a22.44,22.44,0,0,1,7.51,17.72l-.13.39H452.82a14.74,14.74,0,0,0-4.51-10.86,15.52,15.52,0,0,0-11.4-4.48q-10,0-14.27,7.18t-4.28,17.6v2.7q0,10.68,4.25,17.79T436.91,314Z"/><path class="cls-1" d="M491.28,262.27a25.72,25.72,0,0,1,8.86-7.83,24.31,24.31,0,0,1,11.63-2.8q11.14,0,17.36,6.7T535.35,279v43.68H522.66V278.83q0-8.63-3.7-12.76t-11-4.12a18.75,18.75,0,0,0-9.57,2.48,20.72,20.72,0,0,0-7.05,6.73v51.47H478.59V222.13h12.69Z"/></svg>